<?xml version="1.0" encoding="UTF-8"?>
<svg width="3039px" height="635px" viewBox="0 0 3039 635" version="1.1" xmlns="http://www.w3.org/2000/svg" xmlns:xlink="http://www.w3.org/1999/xlink">
    <!-- Generator: sketchtool 63 (101010) - https://sketch.com -->
    <title>Page 1</title>
    <desc>Created with sketchtool.</desc>
    <g id="Page-1" stroke="none" stroke-width="1" fill="none" fill-rule="evenodd">
        <g id="Artboard" stroke="#979797">
            <g id="group" transform="translate(83.000000, 106.000000)">
                <rect id="Background" fill="#D8D8D8" x="0" y="0" width="360" height="492"></rect>
                <rect id="Rectangle" fill="#FF0000" x="41" y="32" width="139" height="140"></rect>
                <g id="subgroup" transform="translate(95.000000, 313.000000)" fill="#5519DE">
                    <rect id="Rectangle" x="0" y="0" width="225" height="72"></rect>
                </g>
            </g>
            <rect id="Rectangle" fill="#00FF00" x="0" y="0" width="553" height="71"></rect>
        </g>
        <g id="Artboard2" transform="translate(641.000000, 0.000000)" stroke="#979797">
            <rect id="Rectangle" fill="#00FFAD" x="87" y="212" width="308" height="310"></rect>
            <circle id="Oval" fill="#1DB1EF" cx="241" cy="367" r="60"></circle>
        </g>
        <g id="Artboard3" transform="translate(1390.000000, 0.000000)" stroke="#979797">
            <g id="uppergroup" transform="translate(54.000000, 71.000000)" fill="#D8D8D8">
                <rect id="Rect" x="0" y="0" width="352" height="207"></rect>
            </g>
            <g id="lowergroup" transform="translate(54.000000, 352.000000)" fill="#FF0000">
                <rect id="Rect" x="0" y="0" width="352" height="122"></rect>
            </g>
            <g id="lowestgroup" transform="translate(54.000000, 474.000000)" fill="#0057FF">
                <rect id="Rect" x="0" y="0" width="352" height="122"></rect>
            </g>
        </g>
        <g id="lowercaseartboard" transform="translate(2031.000000, 0.000000)" fill="#D8D8D8" stroke="#979797">
            <g id="lowercasegroup" transform="translate(59.000000, 159.000000)">
                <ellipse id="Oval" cx="152.5" cy="158.5" rx="152.5" ry="158.5"></ellipse>
            </g>
        </g>
        <g id="artbaord4" transform="translate(2598.000000, 0.000000)">
            <rect id="Rectangle2" stroke="#FF0000" fill="#9900FF" x="0" y="0" width="441" height="635"></rect>
            <rect id="Rectangle1" stroke="#FF0000" fill="#FF0000" x="123" y="104" width="171" height="169"></rect>
            <g id="group" transform="translate(123.000000, 383.000000)" fill="#FFF300" stroke="#979797">
                <rect id="Rectangle" x="0" y="0" width="171" height="169"></rect>
            </g>
        </g>
    </g>
</svg>